PathFileType	4	(X/Y/Z)	 s07c0403.trc
DataRate	CameraRate	NumFrames	NumMarkers	Units	OrigDataRate	OrigDataStartFrame	OrigNumFrames
200	200	4	48	mm	200	1001	2000
Frame#	Time	racr			lacr			c7			jug			rlel			rdr			llel			ldr			s2			lic			ric			lasi			rasi			rpsi			lpsi			rgt			lgt			rth1			rth2			rth3			rth4			rlfc			rmfc			rsh1			rsh2			rsh3			rsh4			rlmal			rcal			rtoe			rmt5			lth1			lth2			lth4			lth3			llfc			lmfc			lsh1			lsh2			lsh3			lsh4			llmal			lcal			ltoe			lmt5			SBIKE			LBIKE			RBIKE			
		X1	Y1	Z1	X2	Y2	Z2	X3	Y3	Z3	X4	Y4	Z4	X5	Y5	Z5	X6	Y6	Z6	X7	Y7	Z7	X8	Y8	Z8	X9	Y9	Z9	X10	Y10	Z10	X11	Y11	Z11	X12	Y12	Z12	X13	Y13	Z13	X14	Y14	Z14	X15	Y15	Z15	X16	Y16	Z16	X17	Y17	Z17	X18	Y18	Z18	X19	Y19	Z19	X20	Y20	Z20	X21	Y21	Z21	X22	Y22	Z22	X23	Y23	Z23	X24	Y24	Z24	X25	Y25	Z25	X26	Y26	Z26	X27	Y27	Z27	X28	Y28	Z28	X29	Y29	Z29	X30	Y30	Z30	X31	Y31	Z31	X32	Y32	Z32	X33	Y33	Z33	X34	Y34	Z34	X35	Y35	Z35	X36	Y36	Z36	X37	Y37	Z37	X38	Y38	Z38	X39	Y39	Z39	X40	Y40	Z40	X41	Y41	Z41	X42	Y42	Z42	X43	Y43	Z43	X44	Y44	Z44	X45	Y45	Z45	X46	Y46	Z46	X47	Y47	Z47	X48	Y48	Z48	
1001	5.0050	790.431909	1393.344613	-79.315872	786.897754	1422.681376	-417.540926	793.395817	1464.867415	-244.989745	740.364063	1321.916532	-263.779464	535.474340	1156.593303	43.467200	694.035222	935.785757	-43.982937	546.905441	1170.728891	-522.122244	692.022108	931.854687	-424.653109	205.980731	1253.868187	-216.306446	349.889301	1320.444539	-356.164219	401.942234	1249.949062	-86.353916	375.810106	1239.812647	-354.534734	406.011392	1194.383442	-104.965755	245.415748	1282.866417	-161.931424	239.309427	1307.954633	-266.593304	308.810266	1125.711953	-54.816003	294.960661	1172.981800	-413.969886	333.364137	972.785487	-56.210579	351.349875	887.016357	-63.643337	328.729010	804.278750	-59.750710	384.452821	887.101468	-79.881165	318.091154	668.000654	-91.129746	292.040112	657.108904	-190.956101	233.679986	553.560999	-59.686229	203.633810	470.889165	-76.381934	140.273725	411.792862	-69.656451	216.574292	465.263621	-114.753156	56.738868	298.366390	-69.949073	-17.116736	298.257923	-95.521534	220.612638	130.617619	-124.681046	138.911679	138.918489	-51.254156	381.500670	1085.707568	-423.631511	463.891441	1054.993968	-429.688981	485.663609	1083.451328	-419.527522	521.197570	986.606231	-430.538131	644.305638	858.735273	-404.626421	636.916334	843.362477	-302.020871	528.839539	769.331892	-414.935486	458.064254	700.544647	-394.041441	383.084485	683.530531	-399.143468	473.447120	711.330070	-353.621429	260.215541	622.648103	-396.873433	179.952755	640.722710	-361.401701	376.083127	427.243041	-352.439242	302.115476	465.057559	-421.573974	-258.025542	967.041100	-231.969580	-75.700089	83.471499	-437.087399	-82.169376	79.506619	-39.632877	
1002	5.0100	791.695547	1391.428476	-82.709727	787.122747	1420.324822	-420.580990	794.203627	1463.038790	-247.979518	739.606918	1320.404518	-266.079128	536.321418	1156.582185	42.181209	694.070254	935.612393	-44.517457	545.240374	1169.563523	-523.032811	691.395978	931.783702	-425.036307	205.988307	1256.647518	-214.859943	348.625738	1322.856693	-355.743823	402.703580	1252.253903	-86.113616	374.702066	1242.303008	-354.109286	406.800289	1196.578907	-105.153419	247.248345	1283.439033	-162.249571	239.091991	1310.653102	-265.226762	310.829257	1127.181596	-54.184055	293.293205	1175.580981	-412.855209	337.773036	973.798919	-57.178483	357.186990	888.718513	-65.375599	336.304499	805.423771	-61.872801	390.325460	889.378325	-81.432630	326.680019	669.414540	-91.624086	301.055769	658.203745	-191.712372	239.291043	557.054878	-60.257070	207.243335	475.181148	-76.639750	142.375831	417.744498	-69.804076	220.348366	469.168453	-114.801838	55.936218	306.618508	-69.933374	-17.662560	310.448599	-95.855912	210.961167	130.197011	-124.700406	129.793598	143.093644	-51.330726	379.483084	1087.658363	-422.658883	461.406392	1056.649160	-429.241574	483.651631	1085.101426	-418.897728	518.710011	988.053088	-429.702404	642.270606	859.460500	-403.830772	634.505835	843.770592	-301.389937	527.216715	768.789412	-414.751853	458.759061	698.403671	-393.982861	383.297048	679.972245	-399.133815	473.187791	709.353418	-353.580088	261.865244	616.786490	-397.193404	180.202787	631.333624	-362.000187	386.277017	428.151741	-353.280695	310.069341	460.934281	-421.790440	-258.053462	967.083617	-232.048799	-75.691519	83.490898	-437.112459	-82.172042	79.576804	-39.642682	
1003	5.0150	792.760181	1389.573798	-85.945918	787.562380	1417.573639	-423.319977	794.950221	1461.172677	-250.979791	739.018099	1318.766419	-268.362383	536.957269	1156.832277	40.979866	694.350299	935.611032	-44.823138	543.686085	1168.316453	-523.834773	690.910986	931.719351	-425.392085	205.992899	1259.660958	-213.476342	347.503564	1325.214248	-355.416007	403.271940	1254.720118	-85.916765	373.491782	1244.762184	-353.867174	407.479668	1199.165242	-105.406768	248.130946	1286.975477	-161.485054	238.904648	1313.629514	-263.874457	312.815225	1128.985798	-53.601330	291.538032	1178.178800	-411.910840	342.582001	975.106763	-58.247397	363.805179	890.332493	-67.181088	344.877179	806.726616	-63.979828	396.792005	892.076283	-83.226571	336.734212	670.706305	-92.631461	311.929319	659.378369	-192.169320	246.118217	561.088001	-60.925634	212.255939	479.925697	-76.900230	145.944954	424.002042	-69.972795	225.180545	473.441516	-115.026077	56.989616	315.804920	-69.565560	-15.606635	322.839176	-96.390115	201.312605	129.816849	-124.664144	121.061508	147.686925	-51.423170	377.187929	1089.325684	-421.804279	458.866320	1057.798320	-428.531788	481.368048	1086.195717	-418.266167	515.762034	988.918006	-428.930046	639.190949	859.520246	-403.079374	631.371065	843.379019	-300.575281	524.743317	767.311495	-414.603362	458.688960	695.511383	-393.850913	382.668755	675.379246	-399.105328	465.258542	696.621900	-340.246498	262.445759	609.580160	-397.146709	179.847212	620.573847	-362.431243	395.675156	428.493638	-353.542472	317.783818	456.454422	-422.755510	-258.049012	967.148938	-232.126997	-75.711568	83.513144	-437.117511	-82.157862	79.692923	-39.651174	
1004	5.0200	793.532593	1387.920314	-89.076386	788.256774	1414.482957	-425.613214	795.786106	1459.271017	-253.519598	738.679352	1317.205164	-270.664082	537.477623	1157.186688	39.861304	694.772940	935.760818	-44.901736	542.176203	1167.075502	-524.599825	690.409447	931.621373	-425.606029	206.065076	1262.546592	-212.223807	346.510352	1327.442432	-355.101159	403.723914	1257.109525	-85.712979	372.254429	1247.096646	-353.720627	408.018848	1201.604693	-105.692556	248.480376	1288.873483	-160.037954	238.836791	1316.533911	-262.884496	314.545320	1130.704283	-53.086674	289.600372	1180.657515	-410.836591	347.774607	976.429794	-59.235001	370.988069	892.521981	-68.934493	354.238541	808.215323	-66.125761	403.655262	895.033012	-85.345772	347.737537	672.202294	-93.885254	323.037142	661.047605	-193.366916	254.076502	565.457775	-61.776297	220.091098	485.138227	-76.355280	150.919012	430.682578	-70.033344	230.836719	478.350143	-115.842298	59.701509	324.873541	-69.165374	-12.164633	335.832794	-96.618529	191.682734	129.568073	-124.591725	112.776248	152.691498	-51.521130	374.732805	1090.875973	-421.034483	457.219687	1058.472135	-426.412965	478.837014	1086.662113	-417.642011	512.311421	989.012123	-428.113117	635.241127	858.679445	-402.277575	626.565959	841.747006	-300.472378	521.446151	764.845506	-414.480498	457.920452	691.871311	-393.657827	381.312657	669.925149	-398.930980	462.731845	692.927971	-339.648298	262.722238	601.386292	-396.807397	179.056658	608.468926	-362.621456	404.535027	428.322240	-354.041297	325.018444	451.532918	-423.615461	-257.970059	967.230535	-232.217485	-75.706240	83.570924	-437.127555	-82.131689	79.782111	-39.677176	
